<?xml version="1.0" encoding="UTF-8" standalone="no"?>
<!DOCTYPE svg PUBLIC "-//W3C//DTD SVG 1.1//EN" "http://www.w3.org/Graphics/SVG/1.1/DTD/svg11.dtd">
<svg width="100%" height="100%" viewBox="0 0 76 76" version="1.1" xmlns="http://www.w3.org/2000/svg" xmlns:xlink="http://www.w3.org/1999/xlink" xml:space="preserve" xmlns:serif="http://www.serif.com/" style="fill-rule:evenodd;clip-rule:evenodd;stroke-linecap:round;stroke-linejoin:round;stroke-miterlimit:10;">
    <g id="Ajuster" transform="matrix(1,0,0,1,13.0443,9.24596)">
        <g transform="matrix(0.999979,0.00644409,0.00644409,-0.999979,2.10684,54.0734)">
            <path d="M9.777,18.227L37.725,18.227" style="fill:none;fill-rule:nonzero;stroke:white;stroke-width:3px;"/>
        </g>
        <g transform="matrix(1,0,0,1,2.22381,-9.98731)">
            <path d="M1.5,50.793L9.169,46.029L23.363,22.463L23.523,13.421" style="fill:none;fill-rule:nonzero;stroke:white;stroke-width:3px;"/>
        </g>
        <g transform="matrix(1,0,0,1,2.22381,-9.98721)">
            <path d="M23.69,13.228L23.981,22.251L37.292,46.327L45.043,50.986" style="fill:none;fill-rule:nonzero;stroke:white;stroke-width:3px;"/>
        </g>
        <g transform="matrix(1,0,0,1,2.22381,10.7927)">
            <path d="M23.669,41.934L9.259,25.681L2.134,5.24L23.372,1.5L45.059,4.985L37.839,25.918L23.669,41.934Z" style="fill:none;fill-rule:nonzero;stroke:white;stroke-width:3px;"/>
        </g>
        <g transform="matrix(1,0,0,1,2.22381,0.640486)">
            <path d="M1.638,39.867L1.638,15.192L23.567,1.637L45.201,15.109L45.48,40.037L23.768,51.949L1.638,39.867Z" style="fill:none;fill-rule:nonzero;stroke:white;stroke-width:3px;"/>
        </g>
    </g>
</svg>
