<?xml version="1.0" encoding="UTF-8" standalone="no"?>
<!DOCTYPE svg PUBLIC "-//W3C//DTD SVG 1.1//EN" "http://www.w3.org/Graphics/SVG/1.1/DTD/svg11.dtd">
<svg width="100%" height="100%" viewBox="0 0 24 33" version="1.1" xmlns="http://www.w3.org/2000/svg" xmlns:xlink="http://www.w3.org/1999/xlink" xml:space="preserve" xmlns:serif="http://www.serif.com/" >
    <g transform="matrix(1,0,0,1,0.0169761,0.050397)">
        <path d="M5.295,30.7C5.295,30.7 -0.865,27.96 0.103,21.181C0.969,15.124 4.449,14.038 6.79,10.482C7.49,9.418 7.892,8.201 7.341,6.942C7.97,7.414 8.757,8.122 8.442,11.662C9.701,7.807 9.701,3.795 6.239,-0.059C10.016,0.727 21.737,3.559 20.95,18.27C21.422,17.641 21.58,16.382 21.737,15.124C23.075,17.562 24.648,22.282 21.659,26.924C20.145,29.274 17.444,31.271 14.608,32.151C14.201,32.278 13.791,32.381 13.382,32.459C13.359,32.463 15.222,29.895 14.95,27.899C14.618,25.463 11.747,25.942 11.693,24.367C11.672,23.753 12.655,23.243 13.221,22.895C15.308,21.614 13.941,19.645 12.779,19.235C13.498,20.225 12.754,21.192 12.035,21.499C11.069,21.911 9.719,22.47 8.67,23.954C7.672,25.365 9.384,26.929 9.68,27.761C9.912,28.414 9.072,29.059 8.426,28.302C7.094,26.737 7.3,25.029 7.283,25.33C6.973,30.804 10.134,32.518 9.575,32.36C7.321,31.723 5.435,29.916 4.587,26.452C4.273,29.599 5.295,30.7 5.295,30.7Z" style="fill:white;"/>
    </g>
</svg>
