<?xml version="1.0" encoding="UTF-8" standalone="no"?>
<!DOCTYPE svg PUBLIC "-//W3C//DTD SVG 1.1//EN" "http://www.w3.org/Graphics/SVG/1.1/DTD/svg11.dtd">
<svg width="100%" height="100%" viewBox="0 0 277 251" version="1.1" xmlns="http://www.w3.org/2000/svg" xmlns:xlink="http://www.w3.org/1999/xlink" xml:space="preserve" xmlns:serif="http://www.serif.com/" style="fill-rule:evenodd;clip-rule:evenodd;stroke-linecap:round;stroke-linejoin:round;stroke-miterlimit:10;">
    <g transform="matrix(-1,0,0,1,285.526,10.7973)">
        <ellipse cx="142.803" cy="119.875" rx="119.875" ry="119.875" style="fill:rgb(86,56,43);"/>
    </g>
    <g transform="matrix(1,0,0,1,-0.0799263,46.8532)">
        <path d="M52.225,148.202C37.142,142.073 27.093,133.37 23.729,128.927C23.552,128.693 27.667,127.261 30.673,125.893C30.737,125.864 34.278,116.665 36.502,110.622C36.644,110.233 30.23,92.865 30.441,90.745L44.689,60.553C51.071,61.312 54.333,62.84 57.687,64.376L64.418,51.294C63.012,50.446 60.934,48.744 55.46,42.722L54.016,41.166L55.013,39.385C55.013,39.385 59.154,50.142 88.779,62.647C119.568,75.642 131.529,70.091 131.529,70.091L101.074,148.225C101.074,148.225 91.855,164.309 52.225,148.202Z" style="fill:white;"/>
    </g>
    <g transform="matrix(-0.411718,0.911311,0.911311,0.411718,-27.9702,50.2467)">
        <path d="M2.925,109.152L98.485,109.152" style="fill:none;fill-rule:nonzero;stroke:rgb(86,56,43);stroke-width:4px;"/>
    </g>
    <g transform="matrix(-0.382708,0.923869,0.923869,0.382708,14.8801,48.6075)">
        <path d="M27.164,95.972L122.725,95.972" style="fill:none;fill-rule:nonzero;stroke:rgb(86,56,43);stroke-width:4.5px;"/>
    </g>
    <g transform="matrix(-0.386583,0.922254,0.922254,0.386583,58.8509,30.6419)">
        <path d="M54.818,90.354L150.378,90.354" style="fill:none;fill-rule:nonzero;stroke:rgb(86,56,43);stroke-width:4px;"/>
    </g>
    <g transform="matrix(1,0,0,1,-0.0799263,145.786)">
        <path d="M14.189,32.052C14.189,32.052 19.138,47.563 53.229,60.28C90.027,74.006 99.798,60.083 99.822,60.046C103.467,54.39 105.75,51.059 105.651,50.533C105.529,49.892 105.753,45.999 105.306,43.966C105.286,43.874 103.127,50.356 103.127,50.356C103.127,50.356 95.593,63.08 71.336,58.138C29.959,49.707 21.456,30.755 21.148,30.914C20.266,31.37 14.189,32.052 14.189,32.052Z" style="fill:white;"/>
    </g>
    <g transform="matrix(1,0,0,1,-0.0799263,-62.5787)">
        <path d="M61.251,129.996C61.251,129.996 55.537,133.949 55.497,134.136C54.216,140.095 53.438,143.381 53.438,143.381C53.438,143.381 56.529,155.33 88.339,168.178C125.359,183.13 137.798,175.216 137.798,175.216L141.47,166.934C141.47,166.934 141.154,161.96 141.026,160.791C140.988,160.446 138.949,166.003 138.949,166.003C138.949,166.003 125.212,175.002 87.999,157.797C58.451,144.135 59.996,137.132 59.843,135.025C59.666,132.577 61.251,129.996 61.251,129.996Z" style="fill:white;"/>
    </g>
    <g transform="matrix(-0.372307,0.92811,0.92811,0.372307,27.9119,139.111)">
        <path d="M42.329,0.062C42.329,0.062 61.355,15.797 54.289,60.867C50.227,86.775 42.329,88.406 42.329,88.406C42.329,88.406 62.458,88.881 64.048,47.944C65.679,5.965 45.299,-0.721 42.329,0.062Z" style="fill:white;"/>
    </g>
    <g transform="matrix(1,0,0,1,-0.0799263,18.3386)">
        <path d="M60.978,80.213L56.526,89.189C56.526,89.189 36.926,81.414 31.032,90.439C25.137,99.464 24.619,112.058 34.743,138.982L29.259,152.604C29.259,152.604 15.137,160.927 7.71,155.446C7.596,155.362 12.832,146.936 12.832,146.936C12.832,146.936 22.997,148.547 22.278,141.538C21.558,134.528 4.874,93.846 22.374,81.827C37.728,71.282 60.978,80.213 60.978,80.213Z" style="fill:white;"/>
    </g>
    <g transform="matrix(0.551208,0.834368,0.834368,-0.551208,-68.8277,208.356)">
        <path d="M-0.839,89.958L6.137,89.958L10.714,80.322L3.189,80.288L-0.839,89.958Z" style="fill:white;"/>
    </g>
    <g transform="matrix(1,0,0,1,-0.0799263,-3.72116)">
        <path d="M7.609,160.506L11.376,166.184C11.376,166.184 20.548,167.112 19.068,162.124C17.589,157.137 12.185,135.754 11.559,130.349C10.932,124.942 8.669,106.031 22.377,99.539C39.803,91.283 56.279,98.203 56.279,98.203L51.603,93.155C51.603,93.155 39.347,87.156 22.26,92.31C9.079,96.287 0.056,107.467 6.719,131.755C10.914,147.047 12.679,153.777 14.397,158.412C16.849,165.03 7.437,160.552 7.609,160.506Z" style="fill:white;"/>
    </g>
    <g transform="matrix(1,0,0,1,-0.0799263,-82.8907)">
        <path d="M136.919,183.69C138.678,181.47 140.361,178.7 139.04,175.447C138.904,175.111 133.796,164.405 110.418,153.254C86.332,141.765 68.57,144.283 68.092,144.395C63.495,145.475 63.145,152.492 63.145,152.492C63.145,152.492 59.168,162.503 93.749,177.315C127.267,191.673 136.657,183.726 136.919,183.69Z" style="fill:white;"/>
    </g>
    <g transform="matrix(-0.922275,-0.386534,-0.386534,0.922275,261.745,-37.7535)">
        <ellipse cx="101.926" cy="170.474" rx="36.922" ry="10.021" style="fill:rgb(86,56,43);"/>
    </g>
    <g transform="matrix(-1,0,0,1,184.664,-110.931)">
        <ellipse cx="92.372" cy="180.739" rx="10.788" ry="10.788" style="fill:white;stroke:rgb(86,56,43);stroke-width:4px;"/>
    </g>
    <g transform="matrix(-1,0,0,1,216.796,-127.745)">
        <circle cx="108.438" cy="189.146" r="5.888" style="fill:white;stroke:rgb(86,56,43);stroke-width:4px;"/>
    </g>
    <g transform="matrix(1,0,0,1,-0.0799263,-89.0917)">
        <path d="M93.286,171.639C89.738,172.209 117.191,185.991 132.806,182.694C133.201,182.61 139.642,160.391 119.588,155.391C113.027,153.755 97.331,153.648 93.286,171.639Z" style="fill:white;stroke:rgb(86,56,43);stroke-width:4px;"/>
    </g>
    <g transform="matrix(1,0,0,1,-0.0799263,46.8532)">
        <path d="M226.968,148.202C241.417,142.073 251.045,133.37 254.268,128.927C254.437,128.693 250.494,127.261 247.615,125.893C247.554,125.864 244.162,116.665 242.031,110.622C241.894,110.233 248.039,92.865 247.837,90.745L234.188,60.553C228.073,61.312 224.948,62.84 221.735,64.376L215.287,51.294C216.634,50.446 218.625,48.744 223.868,42.722L225.252,41.166L224.297,39.385C224.297,39.385 220.33,50.142 191.948,62.647C162.452,75.642 150.993,70.091 150.993,70.091L180.169,148.225C180.169,148.225 189.001,164.309 226.968,148.202Z" style="fill:white;"/>
    </g>
    <g transform="matrix(0.397208,0.917728,0.917728,-0.397208,37.4399,-24.88)">
        <path d="M180.978,109.152L275.87,109.152" style="fill:none;fill-rule:nonzero;stroke:rgb(86,56,43);stroke-width:4px;"/>
    </g>
    <g transform="matrix(0.368872,0.92948,0.92948,-0.368872,40.2249,-0.754936)">
        <path d="M157.71,95.972L252.695,95.972" style="fill:none;fill-rule:nonzero;stroke:rgb(86,56,43);stroke-width:4.5px;"/>
    </g>
    <g transform="matrix(0.372648,0.927973,0.927973,-0.372648,28.1874,28.0258)">
        <path d="M131.224,90.354L226.195,90.354" style="fill:none;fill-rule:nonzero;stroke:rgb(86,56,43);stroke-width:4px;"/>
    </g>
    <g transform="matrix(1,0,0,1,-0.0799263,145.786)">
        <path d="M263.407,32.052C263.407,32.052 258.666,47.563 226.006,60.28C190.753,74.006 181.392,60.083 181.369,60.046C177.877,54.39 175.69,51.059 175.785,50.533C175.901,49.892 175.687,45.999 176.115,43.966C176.135,43.874 178.202,50.356 178.202,50.356C178.202,50.356 185.42,63.08 208.659,58.138C248.299,49.707 256.445,30.755 256.74,30.914C257.585,31.37 263.407,32.052 263.407,32.052Z" style="fill:white;"/>
    </g>
    <g transform="matrix(1,0,0,1,-0.0799263,-62.5787)">
        <path d="M218.321,129.996C218.321,129.996 223.795,133.949 223.833,134.136C225.06,140.095 225.805,143.381 225.805,143.381C225.805,143.381 222.845,155.33 192.37,168.178C156.904,183.13 144.987,175.216 144.987,175.216L141.47,166.934C141.47,166.934 141.773,161.96 141.895,160.791C141.931,160.446 143.885,166.003 143.885,166.003C143.885,166.003 157.045,175.002 192.696,157.797C221.003,144.135 219.523,137.132 219.669,135.025C219.839,132.577 218.321,129.996 218.321,129.996Z" style="fill:white;"/>
    </g>
    <g transform="matrix(-0.386233,-0.922401,-0.922401,0.386233,357.939,396.268)">
        <path d="M236.784,1.452C236.784,1.452 217.875,17.181 224.897,60.417C228.934,85.271 236.784,86.61 236.784,86.61C236.784,86.61 216.778,87.662 215.198,48.249C213.578,7.83 233.832,0.785 236.784,1.452Z" style="fill:white;"/>
    </g>
    <g transform="matrix(1,0,0,1,-0.0799263,18.3386)">
        <path d="M218.582,80.213L222.848,89.189C222.848,89.189 241.624,81.414 247.271,90.439C252.918,99.464 253.415,112.058 243.715,138.982L248.969,152.604C248.969,152.604 262.499,160.927 269.613,155.446C269.722,155.362 264.707,146.936 264.707,146.936C264.707,146.936 254.968,148.547 255.658,141.538C256.347,134.528 272.33,93.846 255.565,81.827C240.856,71.282 218.582,80.213 218.582,80.213Z" style="fill:white;"/>
    </g>
    <g transform="matrix(-0.534832,0.844959,0.844959,0.534832,346.119,-110.047)">
        <path d="M266.554,80.194L273.442,80.194L278.329,89.543L270.901,89.575L266.554,80.194Z" style="fill:white;"/>
    </g>
    <g transform="matrix(1,0,0,1,-0.0799263,-3.72116)">
        <path d="M269.71,160.506L266.102,166.184C266.102,166.184 257.315,167.112 258.732,162.124C260.149,157.137 265.326,135.754 265.927,130.349C266.527,124.942 268.695,106.031 255.563,99.539C238.869,91.283 223.084,98.203 223.084,98.203L227.564,93.155C227.564,93.155 239.305,87.156 255.674,92.31C268.302,96.287 276.947,107.467 270.563,131.755C266.544,147.047 264.854,153.777 263.208,158.412C260.858,165.03 269.875,160.552 269.71,160.506Z" style="fill:white;"/>
    </g>
    <g transform="matrix(1,0,0,1,-0.0799263,-82.8907)">
        <path d="M145.829,183.69C144.144,181.47 142.532,178.7 143.798,175.447C143.928,175.111 148.822,164.405 171.218,153.254C194.293,141.765 211.309,144.283 211.767,144.395C216.171,145.475 216.506,152.492 216.506,152.492C216.506,152.492 220.317,162.503 187.187,177.315C155.076,191.673 146.08,183.726 145.829,183.69Z" style="fill:white;"/>
    </g>
    <g transform="matrix(-0.927995,0.372594,0.372594,0.927995,282.193,-144.952)">
        <path d="M179.353,160.516C198.995,161.117 214.943,166.067 214.943,171.563C214.943,177.059 198.996,181.034 179.353,180.433C159.709,179.833 143.762,174.883 143.762,169.386C143.761,163.89 159.709,159.916 179.353,160.516Z" style="fill:rgb(86,56,43);"/>
    </g>
    <g transform="matrix(-1,0,0,1,376.934,-110.931)">
        <ellipse cx="188.507" cy="180.739" rx="10.335" ry="10.788" style="fill:white;stroke:rgb(86,56,43);stroke-width:4px;"/>
    </g>
    <g transform="matrix(-1,0,0,1,346.149,-127.745)">
        <ellipse cx="173.115" cy="189.146" rx="5.641" ry="5.888" style="fill:white;stroke:rgb(86,56,43);stroke-width:4px;"/>
    </g>
    <g transform="matrix(1,0,0,1,-0.0799263,-89.0917)">
        <path d="M187.631,171.639C191.03,172.209 164.73,185.991 149.77,182.694C149.392,182.61 143.221,160.391 162.433,155.391C168.719,153.755 183.756,153.648 187.631,171.639Z" style="fill:white;stroke:rgb(86,56,43);stroke-width:4px;"/>
    </g>
    <g transform="matrix(1,0,0,1,-0.0799263,-162.54)">
        <path d="M100.241,218.825L87.678,196.325L109.991,196.7L108.866,173.45L129.303,191.637L141.303,162.575L156.303,191.262L175.428,173.825L173.741,195.575L195.491,193.512L177.866,217.7C177.866,217.7 172.902,215.052 169.053,217.137C164.553,219.575 165.341,225.837 165.341,225.837C165.341,225.837 144.416,226.549 141.978,250.512C140.666,234.162 126.153,224.562 117.116,225.987C118.803,219.5 110.178,210.762 100.241,218.825Z" style="fill:white;"/>
    </g>
    <g transform="matrix(1,0,0,1,-0.0799263,-12.0147)">
        <path d="M141.253,123.531L139.378,126.531L133.628,128.781L141.378,139.031L148.003,128.531L142.971,126.41L141.253,123.531L143.826,125.667" style="fill:white;"/>
    </g>
</svg>
