<?xml version="1.0" encoding="UTF-8" standalone="no"?>
<!DOCTYPE svg PUBLIC "-//W3C//DTD SVG 1.1//EN" "http://www.w3.org/Graphics/SVG/1.1/DTD/svg11.dtd">
<svg width="100%" height="100%" viewBox="0 0 76 76" version="1.1" xmlns="http://www.w3.org/2000/svg" xmlns:xlink="http://www.w3.org/1999/xlink" xml:space="preserve" xmlns:serif="http://www.serif.com/" style="fill-rule:evenodd;clip-rule:evenodd;stroke-linecap:round;stroke-linejoin:round;stroke-miterlimit:10;">
    <g id="Ajuster" transform="matrix(1,0,0,1,13.0443,9.24596)">
        <g transform="matrix(-0.723448,-0.690379,-0.690379,0.723448,84.6234,47.8731)">
            <path d="M38.242,47.725L73.79,47.725L75.411,9.182L36.592,11.849L38.242,47.725Z" style="fill:none;fill-rule:nonzero;stroke:white;stroke-width:3px;"/>
        </g>
        <g transform="matrix(1,0,0,1,-32.5052,-26.7275)">
            <path d="M42.337,53.937L56.07,30.093L70.33,54.133" style="fill:none;fill-rule:nonzero;stroke:white;stroke-width:3px;"/>
        </g>
        <g transform="matrix(0,-1,-1,0,36.4459,101.127)">
            <path d="M45.411,12.661L67.169,12.661" style="fill:none;fill-rule:nonzero;stroke:white;stroke-width:3px;"/>
        </g>
        <g transform="matrix(0.945765,-0.32485,-0.32485,-0.945765,-20.7193,74.4368)">
            <path d="M32.211,34.449L44.596,34.449L55.378,23.758L70.339,25.613L80.633,18.047" style="fill:none;fill-rule:nonzero;stroke:white;stroke-width:3px;"/>
        </g>
    </g>
</svg>
