<?xml version="1.0" encoding="UTF-8" standalone="no"?>
<!DOCTYPE svg PUBLIC "-//W3C//DTD SVG 1.1//EN" "http://www.w3.org/Graphics/SVG/1.1/DTD/svg11.dtd">
<svg width="100%" height="100%" viewBox="0 0 76 76" version="1.1" xmlns="http://www.w3.org/2000/svg" xmlns:xlink="http://www.w3.org/1999/xlink" xml:space="preserve" xmlns:serif="http://www.serif.com/" style="fill-rule:evenodd;clip-rule:evenodd;stroke-linecap:round;stroke-linejoin:round;stroke-miterlimit:10;">
    <g id="Ajuster" transform="matrix(1,0,0,1,13.0443,9.24596)">
        <g transform="matrix(-0.667288,0.7448,0.7448,0.667288,38.1892,-26.7276)">
            <path d="M31.547,41.859L47.917,41.859L50.671,25.484L39.062,14.758L26.137,24.88" style="fill:none;fill-rule:nonzero;stroke:white;stroke-width:3px;"/>
        </g>
        <g transform="matrix(1,0,0,1,-3.05994,1.8146)">
            <path d="M18.407,1.5L35.092,1.5L42.703,6.447L51.879,22.509L51.879,32.288L43.802,46.821L36.433,51.221L18.417,51.221L10.063,46.873L1.5,32.133L1.5,23.308L10.612,7.01L18.407,1.5Z" style="fill:none;fill-rule:nonzero;stroke:white;stroke-width:3px;"/>
        </g>
        <g transform="matrix(0.267787,-0.963478,-0.963478,-0.267787,34.8894,83.9844)">
            <path d="M30.427,10.243L46.272,10.243" style="fill:none;fill-rule:nonzero;stroke:white;stroke-width:3px;"/>
        </g>
        <g transform="matrix(-0.331435,-0.943478,-0.943478,0.331435,27.7825,55.5876)">
            <path d="M7.607,10.402L23.981,10.402" style="fill:none;fill-rule:nonzero;stroke:white;stroke-width:3px;"/>
        </g>
        <g transform="matrix(0.97082,0.239809,0.239809,-0.97082,-10.3516,50.1735)">
            <path d="M8.065,45.041L23.518,45.041L27.48,29.257L16.65,18.297L3.259,26.191" style="fill:none;fill-rule:nonzero;stroke:white;stroke-width:3px;"/>
        </g>
    </g>
</svg>
