<?xml version="1.0" encoding="UTF-8" standalone="no"?>
<!DOCTYPE svg PUBLIC "-//W3C//DTD SVG 1.1//EN" "http://www.w3.org/Graphics/SVG/1.1/DTD/svg11.dtd">
<svg width="100%" height="100%" viewBox="0 0 23 23" version="1.1" xmlns="http://www.w3.org/2000/svg" xmlns:xlink="http://www.w3.org/1999/xlink" xml:space="preserve" xmlns:serif="http://www.serif.com/" style="fill-rule:evenodd;clip-rule:evenodd;stroke-linejoin:round;stroke-miterlimit:2;">
    <g transform="matrix(1,0,0,1,0.00994606,5.22886)">
        <path d="M0.493,14.134L0.041,16.898L2.798,16.372L16.896,2.258L14.553,0L0.493,14.134Z" style="fill:rgb(255,242,0);"/>
    </g>
    <g transform="matrix(0.707751,-0.706462,-0.706462,-0.707751,17.5614,29.3858)">
        <path d="M14.181,18.474L21.394,18.474L20.905,16.682L13.76,16.64L14.181,18.474Z" style="fill:rgb(255,242,0);"/>
    </g>
    <g transform="matrix(0,-1,-1,0,41.3571,22.0858)">
        <circle cx="20.653" cy="20.694" r="1.349" style="fill:rgb(255,242,0);"/>
    </g>
    <g transform="matrix(0.708576,0.705635,0.705635,-0.708576,-6.84694,5.49795)">
        <path d="M11.246,16.616L22.162,16.616L19.511,15.219L13.948,15.173L11.246,16.616Z" style="fill:rgb(255,242,0);"/>
    </g>
    <g transform="matrix(1,0,0,1,0.00994606,5.18946)">
        <path d="M19.279,16.444L22.043,16.896L21.517,14.14L7.403,0.041L5.145,2.385L19.279,16.444Z" style="fill:rgb(255,242,0);"/>
    </g>
    <g transform="matrix(-0.706469,-0.707744,-0.707744,0.706469,20.0391,-4.66503)">
        <path d="M1.09,18.439L8.303,18.439L7.814,16.647L0.669,16.605L1.09,18.439Z" style="fill:rgb(255,242,0);"/>
    </g>
    <g transform="matrix(-1,0,0,1,2.70785,-19.1792)">
        <circle cx="1.349" cy="20.653" r="1.349" style="fill:rgb(255,242,0);"/>
    </g>
    <g transform="matrix(0.705635,-0.708576,-0.708576,-0.705635,13.4433,21.0555)">
        <path d="M-0.031,16.704L10.885,16.704L8.234,15.307L2.672,15.261L-0.031,16.704Z" style="fill:rgb(255,242,0);"/>
    </g>
</svg>
