<?xml version="1.0" encoding="UTF-8" standalone="no"?>
<!DOCTYPE svg PUBLIC "-//W3C//DTD SVG 1.1//EN" "http://www.w3.org/Graphics/SVG/1.1/DTD/svg11.dtd">
<svg width="100%" height="100%" viewBox="0 0 52 63" version="1.1" xmlns="http://www.w3.org/2000/svg" xmlns:xlink="http://www.w3.org/1999/xlink" xml:space="preserve" xmlns:serif="http://www.serif.com/" style="fill-rule:evenodd;clip-rule:evenodd;stroke-linejoin:round;stroke-miterlimit:2;">
    <g transform="matrix(1,0,0,1,1.13478,-26.4012)">
        <path d="M41.851,46.519L45.151,44.148L41.783,41.859L12.834,41.875L12.923,46.596L41.851,46.519Z" style="fill:rgb(255,242,0);"/>
    </g>
    <g transform="matrix(-1,-0.000907579,-0.000907579,1,19.3822,-26.4677)">
        <path d="M4.175,45.591L14.643,45.591L13.933,42.99L3.565,42.93L4.175,45.591Z" style="fill:rgb(255,242,0);"/>
    </g>
    <g transform="matrix(-0.707107,0.707107,0.707107,0.707107,-25.4105,-15.3977)">
        <circle cx="2.768" cy="44.224" r="1.957" style="fill:rgb(255,242,0);"/>
    </g>
    <g transform="matrix(-0.00207704,-0.999998,-0.999998,0.00207704,57.5637,29.6546)">
        <path d="M4.13,45.399L19.97,45.399L16.124,43.372L8.052,43.305L4.13,45.399Z" style="fill:rgb(255,242,0);"/>
    </g>
    <g transform="matrix(1,0,0,1,1.13478,1.16853)">
        <path d="M6.903,28.151L3.603,30.523L6.971,32.811L35.92,32.796L35.831,28.075L6.903,28.151Z" style="fill:rgb(255,242,0);"/>
    </g>
    <g transform="matrix(1,0.000917133,0.000917133,-1,1.10691,62.0179)">
        <path d="M34.722,31.731L45.189,31.731L44.479,29.131L34.111,29.07L34.722,31.731Z" style="fill:rgb(255,242,0);"/>
    </g>
    <g transform="matrix(0.70712,-0.707094,-0.707094,-0.70712,36.132,85.6533)">
        <ellipse cx="45.986" cy="30.447" rx="1.957" ry="1.957" style="fill:rgb(255,242,0);"/>
    </g>
    <g transform="matrix(0.00207703,0.999998,0.999998,-0.00207703,7.44956,-4.90328)">
        <path d="M28.788,31.358L44.628,31.358L40.781,29.331L32.71,29.264L28.788,31.358Z" style="fill:rgb(255,242,0);"/>
    </g>
    <g transform="matrix(1,0,0,1,1.13478,27.5378)">
        <path d="M41.851,19.55L45.151,17.178L41.783,14.89L12.834,14.906L12.923,19.627L41.851,19.55Z" style="fill:rgb(255,242,0);"/>
    </g>
    <g transform="matrix(-1,-0.000907579,-0.000907579,1,19.3578,27.4713)">
        <path d="M4.175,18.621L14.643,18.621L13.933,16.021L3.565,15.96L4.175,18.621Z" style="fill:rgb(255,242,0);"/>
    </g>
    <g transform="matrix(-0.707107,0.707107,0.707107,0.707107,-6.34017,30.6422)">
        <circle cx="2.768" cy="17.254" r="1.957" style="fill:rgb(255,242,0);"/>
    </g>
    <g transform="matrix(-0.00207704,-0.999998,-0.999998,0.00207704,30.5943,56.6801)">
        <path d="M4.13,18.429L19.97,18.429L16.124,16.403L8.052,16.335L4.13,18.429Z" style="fill:rgb(255,242,0);"/>
    </g>
</svg>
